<svg width="21" height="21" viewBox="0 0 21 21" fill="none" xmlns="http://www.w3.org/2000/svg">
    <path
        d="M3.66685 16.9166C3.20852 16.9166 2.81616 16.7534 2.48977 16.427C2.16338 16.1006 2.00018 15.7083 2.00018 15.2499V5.24995C2.00018 4.79162 2.16338 4.39925 2.48977 4.07287C2.81616 3.74648 3.20852 3.58328 3.66685 3.58328H17.0002C17.4585 3.58328 17.8509 3.74648 18.1773 4.07287C18.5037 4.39925 18.6668 4.79162 18.6668 5.24995V15.2499C18.6668 15.7083 18.5037 16.1006 18.1773 16.427C17.8509 16.7534 17.4585 16.9166 17.0002 16.9166H3.66685ZM10.3335 11.0833L3.66685 6.91662V15.2499H17.0002V6.91662L10.3335 11.0833ZM10.3335 9.41662L17.0002 5.24995H3.66685L10.3335 9.41662ZM3.66685 6.91662V5.24995V15.2499V6.91662Z"
        fill="black" />
</svg>
