<svg width="21" height="21" viewBox="0 0 21 21" fill="none" xmlns="http://www.w3.org/2000/svg">
    <path
        d="M16.9585 17.7499C15.2224 17.7499 13.5071 17.3715 11.8127 16.6145C10.1182 15.8576 8.57655 14.7847 7.18766 13.3958C5.79877 12.0069 4.72586 10.4652 3.96891 8.77077C3.21197 7.07633 2.8335 5.36105 2.8335 3.62494C2.8335 3.37494 2.91683 3.16661 3.0835 2.99994C3.25016 2.83327 3.4585 2.74994 3.7085 2.74994H7.0835C7.27794 2.74994 7.45155 2.81591 7.60433 2.94786C7.75711 3.0798 7.84738 3.23605 7.87516 3.41661L8.41683 6.33327C8.44461 6.55549 8.43766 6.74299 8.396 6.89577C8.35433 7.04855 8.27794 7.18049 8.16683 7.29161L6.146 9.33327C6.42377 9.84716 6.75364 10.3437 7.13558 10.8229C7.51752 11.302 7.93766 11.7638 8.396 12.2083C8.82655 12.6388 9.27794 13.0381 9.75016 13.4062C10.2224 13.7742 10.7224 14.1111 11.2502 14.4166L13.2085 12.4583C13.3335 12.3333 13.4967 12.2395 13.6981 12.177C13.8995 12.1145 14.0974 12.0972 14.2918 12.1249L17.1668 12.7083C17.3613 12.7638 17.521 12.8645 17.646 13.0104C17.771 13.1562 17.8335 13.3194 17.8335 13.4999V16.8749C17.8335 17.1249 17.7502 17.3333 17.5835 17.4999C17.4168 17.6666 17.2085 17.7499 16.9585 17.7499ZM5.35433 7.74994L6.72933 6.37494L6.37516 4.41661H4.521C4.59044 4.98605 4.68766 5.54855 4.81266 6.10411C4.93766 6.65966 5.11822 7.20827 5.35433 7.74994ZM12.8127 15.2083C13.3543 15.4444 13.9064 15.6319 14.4689 15.7708C15.0314 15.9097 15.5974 15.9999 16.1668 16.0416V14.2083L14.2085 13.8124L12.8127 15.2083Z"
        fill="black" />
</svg>
    