<svg width="33" height="12" viewBox="0 0 33 12" fill="none" xmlns="http://www.w3.org/2000/svg">
<path d="M1.03369 5.28615C0.59788 5.28615 0.244584 5.63944 0.244584 6.07526C0.244584 6.51107 0.59788 6.86436 1.03369 6.86436V5.28615ZM32.2134 6.63324C32.5216 6.32507 32.5216 5.82544 32.2134 5.51727L27.1916 0.495426C26.8834 0.187261 26.3838 0.187261 26.0756 0.495426C25.7674 0.803592 25.7674 1.30323 26.0756 1.61139L30.5395 6.07526L26.0756 10.5391C25.7674 10.8473 25.7674 11.3469 26.0756 11.6551C26.3838 11.9633 26.8834 11.9633 27.1916 11.6551L32.2134 6.63324ZM1.03369 6.86436H31.6554V5.28615H1.03369V6.86436Z" fill="black"/>
</svg>
