<svg width="33" height="12" viewBox="0 0 33 12" fill="none" xmlns="http://www.w3.org/2000/svg">
<path d="M31.9663 6.86436C32.4021 6.86436 32.7554 6.51107 32.7554 6.07526C32.7554 5.63944 32.4021 5.28615 31.9663 5.28615L31.9663 6.86436ZM0.786583 5.51727C0.478418 5.82544 0.478418 6.32507 0.786583 6.63324L5.80843 11.6551C6.1166 11.9632 6.61623 11.9632 6.9244 11.6551C7.23256 11.3469 7.23256 10.8473 6.9244 10.5391L2.46053 6.07525L6.9244 1.61139C7.23256 1.30322 7.23256 0.80359 6.9244 0.495424C6.61623 0.187258 6.1166 0.187258 5.80843 0.495424L0.786583 5.51727ZM31.9663 5.28615L1.34457 5.28615L1.34457 6.86436L31.9663 6.86436L31.9663 5.28615Z" fill="black"/>
</svg>
